<svg
   version="1.1"
   id="svg1"
   width="384"
   height="384"
   viewBox="0 0 384 384"
   sodipodiDocname="CSU-Ram-357.eps"
   xmlnsInkscape="http://www.inkscape.org/namespaces/inkscape"
   xmlnsSodipodi="http://sodipodi.sourceforge.net/DTD/sodipodi-0.dtd"
   xmlns="http://www.w3.org/2000/svg"
   xmlnsSvg="http://www.w3.org/2000/svg">
  <defs
     id="defs1">
    <clipPath
       clipPathUnits="userSpaceOnUse"
       id="clipPath3">
      <path
         d="m 1790.67,1634.74 -0.01,0.01 v 0 l 0.01,-0.01"
         id="path3" />
    </clipPath>
  </defs>
  <sodipodiNamedview
     id="namedview1"
     pagecolor="#ffffff"
     bordercolor="#666666"
     borderopacity="1.0"
     inkscapeShowpageshadow="2"
     inkscapePageopacity="0.0"
     inkscapePagecheckerboard="0"
     inkscapeDeskcolor="#d1d1d1" />
  <g
     id="g1"
     inkscapeGroupmode="layer"
     inkscapeLabel="1">
    <g
       id="group-R5">
      <path
         id="path2"
         d="m 1790.67,1634.74 -0.01,0.01 v 0 l 0.01,-0.01"
         style="fill:#ffffff;fill-opacity:1;fill-rule:nonzero;stroke:none"
         transform="matrix(0.13333333,0,0,-0.13333333,0,384)"
         clip-path="url(#clipPath3)" />
      <path
         id="path4"
         d="M 2879.98,1440 C 2879.98,644.711 2235.28,0 1439.99,0 644.707,0 0,644.711 0,1440 c 0,795.29 644.707,1440 1439.99,1440 795.29,0 1439.99,-644.71 1439.99,-1440"
         style="fill:#0d4520;fill-opacity:1;fill-rule:nonzero;stroke:none"
         transform="matrix(0.13333333,0,0,-0.13333333,0,384)" />
      <path
         id="path5"
         d="m 1583.85,683.09 c -47.41,-4.692 -99.4,-15.781 -141.35,-14.969 -41.94,-0.812 -94,10.277 -141.38,14.969 -7.6,0.851 -13.13,-4.692 -13.13,-4.692 -27.66,-59.007 131.16,-91.628 154.04,-90.578 22.91,-1.05 182.58,31.571 154.96,90.578 0,0 -5.64,5.543 -13.14,4.692"
         style="fill:#ffffff;fill-opacity:1;fill-rule:nonzero;stroke:none"
         transform="matrix(0.13333333,0,0,-0.13333333,0,384)" />
      <path
         id="path6"
         d="m 1009.8,1467.12 c 43.92,40.21 157.81,-88.65 132.59,-189.41 -11.23,-3.7 -16.8,2.71 -43.06,45.61 -18.63,32.75 -66.25,26.24 -88.65,39.3 -36.278,23.39 -34.481,73.78 -0.88,104.5 z M 981.766,1078.9 c 24.304,-65.36 80.294,-173.662 150.244,-275.369 -19.55,161.481 70.05,267.839 90.61,311.749 38.32,58.75 78.5,186.73 55.15,240.79 -37.33,14.97 -82.2,43.95 -109.31,85.02 -27.08,39.16 -42.87,82.97 -90.45,96.04 -31.76,11.3 -67.33,4.68 -93.393,-9.33 -41.98,-24.23 -52.195,-82.03 -58.777,-127.78 -2.75,-94.28 14.863,-233.42 55.926,-321.12"
         style="fill:#ffffff;fill-opacity:1;fill-rule:nonzero;stroke:none"
         transform="matrix(0.13333333,0,0,-0.13333333,0,384)" />
      <path
         id="path7"
         d="m 1869.5,1467.12 c 34.49,-30.72 35.5,-81.11 -0.95,-104.5 -21.44,-13.06 -69.09,-6.55 -88.61,-39.3 -26.1,-42.9 -31.8,-49.31 -42.96,-45.61 -25.15,100.76 88.61,229.62 132.52,189.41 z M 1748.14,803.531 c 69.98,101.707 125.91,210.009 149.29,275.369 41.14,87.7 59.77,226.84 56.04,321.12 -5.57,45.75 -16.74,103.55 -58.78,127.78 -26.14,14.01 -61.57,20.63 -93.26,9.33 -47.59,-13.07 -62.62,-56.88 -90.72,-96.04 -26.91,-41.07 -71.78,-70.05 -109.11,-85.02 -23.41,-54.06 16.87,-182.04 55.12,-240.79 21.41,-43.91 110.02,-150.268 91.42,-311.749"
         style="fill:#ffffff;fill-opacity:1;fill-rule:nonzero;stroke:none"
         transform="matrix(0.13333333,0,0,-0.13333333,0,384)" />
      <path
         id="path8"
         d="m 533.758,1520.43 c -4.684,-40.18 49.48,-83.11 83.996,-108.36 35.531,-26.98 91.527,-28.91 120.445,-72.8 24.231,-37.26 43.813,-94.17 50.465,-145.59 11.133,-99.03 9.297,-223.071 78.395,-305.301 12.964,48.633 -22.465,157.771 -23.282,298.721 -1.121,52.29 -20.668,112.06 -51.382,151.36 56.878,4.58 57.796,-2.92 62.48,14.86 5.531,17.72 -5.602,37.34 -18.699,53.15 -41.067,47.58 -99.813,22.43 -152.176,39.3 -34.48,12.08 -87.625,29.8 -90.477,78.29 -1.835,32.69 100.864,40.19 100.864,40.19 82.058,-6.49 72.691,-53.15 129.636,-57.8 46.7,-3.8 66.317,45.65 81.317,75.55 22.398,47.58 48.465,149.36 -46.699,134.46 -49.547,-8.42 -58.844,-81.32 -21.582,-125.13 -34.414,3.77 -85.797,51.35 -207.157,13.13 -41.945,-13.13 -89.593,-29.96 -96.144,-84.03"
         style="fill:#ffffff;fill-opacity:1;fill-rule:nonzero;stroke:none"
         transform="matrix(0.13333333,0,0,-0.13333333,0,384)" />
      <path
         id="path9"
         d="m 1218.92,752.148 c 47.58,-41.058 110.2,-69.058 196.02,-42.898 21.49,14.871 9.3,58.75 -1.83,78.469 -40.18,52.191 -102.69,31.59 -120.44,57.761 -16.87,25.18 -5.6,44.899 4.65,57.829 14.93,18.66 39.16,14.05 59.73,8.453 36.45,-8.25 61.22,-23.524 84.06,-45.852 v -1.699 l 0.85,0.82 0.98,-0.82 v 1.73 c 21.96,22.368 47.65,37.641 84,45.821 19.61,5.597 44.8,10.207 58.85,-8.453 11.2,-12.93 21.44,-32.649 4.68,-57.829 -17.78,-26.171 -79.35,-5.57 -119.53,-57.761 -11.13,-19.719 -24.3,-63.598 -2.92,-78.469 86.92,-26.16 148.51,1.84 196.09,42.898 108.33,92.454 -39.16,287.522 -112.02,365.882 -40.42,43.34 -65.57,81.05 -109.15,82.07 v 0.1 l -0.98,-0.07 -0.85,0.07 v -0.1 c -44.59,-1.02 -68.72,-38.69 -110.16,-82.07 -71.85,-78.36 -219.41,-273.428 -112.03,-365.882"
         style="fill:#ffffff;fill-opacity:1;fill-rule:nonzero;stroke:none"
         transform="matrix(0.13333333,0,0,-0.13333333,0,384)" />
      <path
         id="path10"
         d="m 2068.31,1506.45 c 56.98,4.65 48.43,51.31 130.69,57.8 0,0 102.63,-7.5 100.9,-40.19 -3.8,-48.49 -57.08,-66.21 -91.53,-78.29 -51.35,-16.87 -110.26,8.28 -152.21,-39.3 -12.96,-15.81 -23.35,-35.43 -18.73,-53.15 4.68,-17.78 6.72,-10.28 63.53,-14.86 -31.77,-39.3 -50.4,-99.07 -51.31,-151.36 -1.77,-140.95 -37.34,-250.088 -23.35,-298.721 68.21,82.23 67.19,206.271 78.46,305.301 6.48,51.42 25.11,108.33 50.43,145.59 28.92,43.89 84.03,45.82 120.34,72.8 34.55,25.25 88.61,68.18 83.96,108.36 -6.51,54.07 -54.09,70.9 -96.04,84.03 -121.43,38.22 -172.74,-9.36 -208.17,-13.13 38.21,43.81 28.88,116.71 -21.42,125.13 -94.38,14.9 -68.25,-86.88 -45.78,-134.46 14.94,-29.9 33.57,-79.35 80.23,-75.55"
         style="fill:#ffffff;fill-opacity:1;fill-rule:nonzero;stroke:none"
         transform="matrix(0.13333333,0,0,-0.13333333,0,384)" />
      <path
         id="path11"
         d="m 1149.62,1710.21 c 27.36,-25.25 150.82,0 174.41,28.92 31.12,37.33 93.29,171.79 22.6,260.44 -97.52,123.45 -489.857,477.75 -861.052,210.56 90.399,124.43 226.524,236.81 389.285,320.21 183.367,93.96 384.177,142.82 565.547,137.83 l 0.51,-0.02 0.52,0.02 c 181.17,4.94 381.5,-43.87 564.24,-137.81 161.91,-83.25 297.78,-195.61 388.55,-320.16 -371.99,267.06 -763.28,-87.19 -861.86,-210.63 -69.71,-88.65 -8.42,-223.11 22.67,-260.44 24.5,-28.92 147.97,-54.17 175.32,-28.92 175.39,157.68 277.2,500.31 858.79,156.76 -63.09,9.33 -179.97,43.95 -233.66,9.33 -156.66,-97.13 220.46,-321.12 -25.56,-764.48 1.94,-2.75 144.34,71 198.95,69.1 35.83,-1.83 54.74,-26.03 49.04,-62.48 -7.54,-50.46 -46.19,-82.26 -78.26,-109.35 -136.74,-111.988 -335.58,-380.781 -235.7,-375.18 98.96,4.68 319.66,328.551 354.48,406.03 -40.52,-135.311 -121.53,-263.151 -202.74,-374.26 -43.38,-58.848 -93.2,-107.309 -156.42,-129.782 -39.61,-15.816 -81.15,-22.429 -121.67,-3.726 -31.9,13.976 -51.82,45.75 -57.52,81.277 -7.37,52.231 21.78,113.832 47.14,154.961 35.02,58.68 115.11,161.371 207.42,229.52 131.1,97.13 222.5,124.21 188.63,146.58 -23.62,15.88 -147.97,-52.34 -172.47,-65.37 C 2211.19,1007.26 2018.8,799.148 1996.19,645.039 1980.59,538.852 2085.56,459.148 2175.8,462.871 1876.19,222.262 1550.13,214.41 1440.7,211.852 l -0.88,0.027 -0.26,-0.02 c -110.38,2.582 -437.04,10.789 -735.49,251.02 90.321,-3.809 195.414,75.922 179.719,182.16 -22.637,154.109 -215.879,362.221 -354.41,434.101 -24.535,13.03 -149.051,81.25 -172.606,65.37 -33.937,-22.37 57.457,-49.45 188.559,-146.58 92.445,-68.149 171.656,-170.84 206.477,-229.52 26.402,-41.129 55.621,-102.73 48.086,-154.961 -5.7,-35.527 -26.368,-67.301 -57.524,-81.277 -40.586,-18.703 -81.957,-12.09 -122.516,3.726 -62.171,22.473 -112.195,70.934 -155.566,129.782 -81.996,111.109 -162.086,238.949 -202.742,374.26 34.816,-77.479 255.516,-401.35 353.558,-406.03 100.797,-5.601 -98.042,263.192 -234.777,375.18 -32.988,27.09 -70.726,58.89 -78.125,109.35 -5.84,36.45 13.067,60.65 48.938,62.48 54.742,1.9 197.074,-71.85 198.875,-69.1 -246.93,443.36 131.066,667.35 -25.387,764.48 -54.774,34.62 -170.57,0 -233.828,-9.33 581.758,343.55 683.429,0.92 858.819,-156.76 z m 1292.55,462.06 -0.01,0.01 v 0 z M 2213.01,469.68 H 2213 l 0.02,0.011 z M 1440.4,134.109 c 718.69,0 1304.96,587.161 1304.96,1305.891 0,719.62 -586.27,1305.89 -1304.96,1305.89 C 720.785,2745.89 134.617,2159.62 134.617,1440 134.617,721.27 720.785,134.109 1440.4,134.109"
         style="fill:#ffffff;fill-opacity:1;fill-rule:nonzero;stroke:none"
         transform="matrix(0.13333333,0,0,-0.13333333,0,384)" />
    </g>
  </g>
</svg>
